<svg width="27" height="22" viewBox="0 0 27 22" fill="none" xmlns="http://www.w3.org/2000/svg">
<path d="M21 11C21 15.1421 17.6421 18.5 13.5 18.5C9.35786 18.5 6 15.1421 6 11M21 11C21 6.85786 17.6421 3.5 13.5 3.5C9.35786 3.5 6 6.85786 6 11M21 11C21 16.5228 16.5228 21 11 21C5.47715 21 1 16.5228 1 11M6 11C6 5.47715 10.4772 1 16 1C21.5228 1 26 5.47715 26 11M14.75 11C14.75 11.6904 14.1904 12.25 13.5 12.25C12.8096 12.25 12.25 11.6904 12.25 11C12.25 10.3096 12.8096 9.75 13.5 9.75C14.1904 9.75 14.75 10.3096 14.75 11Z" stroke="#6F6F6F" stroke-width="2" stroke-linecap="round" stroke-linejoin="round"/>
</svg>