<svg width="43" height="39" viewBox="0 0 43 39" fill="none" xmlns="http://www.w3.org/2000/svg">
<path d="M30.7076 8.80556C31.7757 7.61215 33.328 6.86111 35.0556 6.86111C38.2773 6.86111 40.8889 9.47278 40.8889 12.6944C40.8889 15.9161 38.2773 18.5278 35.0556 18.5278H23.3889M11.2631 3.94444C12.3313 2.75104 13.8835 2 15.6111 2C18.8328 2 21.4444 4.61167 21.4444 7.83333C21.4444 11.055 18.8328 13.6667 15.6111 13.6667H2M19.0409 35.0556C20.109 36.249 21.6613 37 23.3889 37C26.6106 37 29.2222 34.3883 29.2222 31.1667C29.2222 27.945 26.6106 25.3333 23.3889 25.3333H2" stroke="#E1E1E1" stroke-width="4" stroke-linecap="round" stroke-linejoin="round"/>
</svg>
