<svg width="26" height="27" viewBox="0 0 26 27" fill="none" xmlns="http://www.w3.org/2000/svg">
<path d="M13.5731 5.70833C14.4776 4.26312 15.1188 2.66902 15.4669 1C16.1245 4.28794 18.0973 7.44436 20.7276 9.54865C23.358 11.6529 24.6732 14.1518 24.6732 16.7821C24.6807 18.6001 24.1483 20.3793 23.1434 21.8943C22.1385 23.4093 20.7064 24.5918 19.0286 25.292C17.3509 25.9921 15.503 26.1783 13.7193 25.8269C11.9356 25.4756 10.2964 24.6026 9.00942 23.3185M6.26071 18.4655C9.15409 18.4655 11.5214 16.0588 11.5214 13.1391C11.5214 11.6135 10.7718 10.1668 9.27246 8.94367C7.77316 7.72055 6.64211 5.90561 6.26071 3.9986C5.8793 5.90561 4.7614 7.7337 3.24895 8.94367C1.7365 10.1536 1 11.6266 1 13.1391C1 16.0588 3.36732 18.4655 6.26071 18.4655Z" stroke="#6F6F6F" stroke-width="2" stroke-linecap="round" stroke-linejoin="round"/>
</svg>
