<svg width="35" height="37" viewBox="0 0 35 37" fill="none" xmlns="http://www.w3.org/2000/svg">
<path d="M30.8875 20.2625C30.9625 19.7 31 19.1187 31 18.5C31 17.9 30.9625 17.3 30.8687 16.7375L34.675 13.775C35.0125 13.5125 35.1062 13.0062 34.9 12.6312L31.3 6.40625C31.075 5.99375 30.6062 5.8625 30.1937 5.99375L25.7125 7.79375C24.775 7.08125 23.7812 6.48125 22.675 6.03125L22 1.26875C21.925 0.81875 21.55 0.5 21.1 0.5H13.9C13.45 0.5 13.0937 0.81875 13.0187 1.26875L12.3437 6.03125C11.2375 6.48125 10.225 7.1 9.30621 7.79375L4.82496 5.99375C4.41246 5.84375 3.94371 5.99375 3.71871 6.40625L0.137462 12.6312C-0.0875384 13.025 -0.0125386 13.5125 0.362461 13.775L4.16871 16.7375C4.07496 17.3 3.99996 17.9187 3.99996 18.5C3.99996 19.0812 4.03746 19.7 4.13121 20.2625L0.324961 23.225C-0.0125386 23.4875 -0.106288 23.9937 0.0999616 24.3687L3.69996 30.5938C3.92496 31.0063 4.39371 31.1375 4.80621 31.0062L9.28746 29.2062C10.225 29.9187 11.2187 30.5187 12.325 30.9687L13 35.7313C13.0937 36.1812 13.45 36.5 13.9 36.5H21.1C21.55 36.5 21.925 36.1812 21.9812 35.7313L22.6562 30.9687C23.7625 30.5187 24.775 29.9187 25.6937 29.2062L30.175 31.0062C30.5875 31.1562 31.0562 31.0063 31.2812 30.5938L34.8812 24.3687C35.1062 23.9562 35.0125 23.4875 34.6562 23.225L30.8875 20.2625ZM17.5 25.25C13.7875 25.25 10.75 22.2125 10.75 18.5C10.75 14.7875 13.7875 11.75 17.5 11.75C21.2125 11.75 24.25 14.7875 24.25 18.5C24.25 22.2125 21.2125 25.25 17.5 25.25Z" fill="white"/>
</svg>
