<svg width="12" height="28" viewBox="0 0 16 32" fill="none" xmlns="http://www.w3.org/2000/svg">
<path d="M11.5 4.75C11.5 2.67893 9.82107 1 7.75 1C5.67893 1 4 2.67893 4 4.75V18.6367C2.19102 19.8476 1 21.9097 1 24.25C1 27.9779 4.02208 31 7.75 31C11.4779 31 14.5 27.9779 14.5 24.25C14.5 21.9097 13.309 19.8476 11.5 18.6367V4.75Z" stroke="#aaa" stroke-width="2" stroke-linecap="round" stroke-linejoin="round"/>
<path d="M7.75 25.75C8.57843 25.75 9.25 25.0784 9.25 24.25C9.25 23.4216 8.57843 22.75 7.75 22.75C6.92157 22.75 6.25 23.4216 6.25 24.25C6.25 25.0784 6.92157 25.75 7.75 25.75Z" stroke="#6F6F6F" stroke-width="2" stroke-linecap="round" stroke-linejoin="round"/>
</svg>
