<svg width="23" height="17" viewBox="0 0 27 20" fill="none" xmlns="http://www.w3.org/2000/svg">
<path d="M1.33506 10.7941C1.16213 10.5203 1.07567 10.3834 1.02727 10.1722C0.990911 10.0136 0.990911 9.76345 1.02727 9.60483C1.07567 9.39366 1.16213 9.25676 1.33506 8.98294C2.76409 6.7202 7.01772 1 13.5 1C19.9823 1 24.2359 6.7202 25.6649 8.98294C25.8379 9.25676 25.9243 9.39366 25.9727 9.60483C26.0091 9.76345 26.0091 10.0136 25.9727 10.1722C25.9243 10.3834 25.8379 10.5203 25.6649 10.7941C24.2359 13.0569 19.9823 18.7771 13.5 18.7771C7.01772 18.7771 2.76409 13.0569 1.33506 10.7941Z" stroke="#6F6F6F" stroke-width="2" stroke-linecap="round" stroke-linejoin="round"/>
<path d="M13.5 13.6979C15.6039 13.6979 17.3094 11.9924 17.3094 9.88853C17.3094 7.78467 15.6039 6.07916 13.5 6.07916C11.3961 6.07916 9.69063 7.78467 9.69063 9.88853C9.69063 11.9924 11.3961 13.6979 13.5 13.6979Z" stroke="#aaa" stroke-width="2" stroke-linecap="round" stroke-linejoin="round"/>
</svg>
