<svg width="23" height="18" viewBox="0 0 27 22" fill="none" xmlns="http://www.w3.org/2000/svg">
<path d="M10.3866 1.83333C10.8444 1.32188 11.5096 1 12.25 1C13.6307 1 14.75 2.11929 14.75 3.5C14.75 4.88071 13.6307 6 12.25 6H1.00003M14.1366 20.1667C14.5944 20.6781 15.2596 21 16 21C17.3807 21 18.5 19.8807 18.5 18.5C18.5 17.1193 17.3807 16 16 16H1.00003M19.4549 4.75C20.1415 3.98281 21.1394 3.5 22.25 3.5C24.3211 3.5 26 5.17893 26 7.25C26 9.32107 24.3211 11 22.25 11H1" stroke="#aaa" stroke-width="2" stroke-linecap="round" stroke-linejoin="round"/>
</svg>
